<?xml version="1.0" standalone="no"?>
<!DOCTYPE svg PUBLIC "-//W3C//DTD SVG 20010904//EN"
 "http://www.w3.org/TR/2001/REC-SVG-20010904/DTD/svg10.dtd">
<svg version="1.0" xmlns="http://www.w3.org/2000/svg"
 width="512.000000pt" height="512.000000pt" viewBox="0 0 512.000000 512.000000"
 preserveAspectRatio="xMidYMid meet">

<g transform="translate(0.000000,512.000000) scale(0.100000,-0.100000)"
fill="#6366f1" stroke="none">
<path d="M1015 3791 c-47 -12 -87 -36 -126 -78 -108 -115 -838 -1006 -862
-1053 -25 -48 -28 -63 -24 -117 3 -43 13 -76 30 -105 40 -67 868 -1050 905
-1075 151 -100 360 -1 379 179 11 106 3 118 -344 534 -174 209 -336 402 -360
430 l-43 51 360 433 c393 474 398 481 387 587 -15 148 -158 249 -302 214z"/>
<path d="M2760 3785 c-57 -18 -115 -66 -140 -115 -34 -66 -580 -2050 -580
-2106 0 -91 62 -185 145 -220 49 -20 118 -27 163 -15 55 15 122 67 149 116 33
61 583 2050 583 2111 0 103 -74 199 -174 229 -60 18 -87 18 -146 0z"/>
<path d="M3972 3786 c-93 -30 -159 -112 -169 -209 -11 -105 -3 -118 344 -533
174 -209 336 -402 360 -430 l43 -51 -360 -433 c-394 -474 -398 -481 -387 -588
19 -180 228 -279 379 -179 53 36 893 1051 919 1111 25 58 23 141 -6 195 -15
31 -785 960 -864 1044 -20 21 -53 47 -73 58 -50 25 -133 32 -186 15z"/>
</g>
</svg>
