<svg width="150" height="100" viewBox="0 0 150 100" fill="none" xmlns="http://www.w3.org/2000/svg">
<rect width="150" height="100" rx="16" fill="#2D2D2D"/>
<path d="M49.2959 35.3507H67.5175V36.8746H50.9662V48.3445H66.5305V49.8685H50.9662V62.4613H67.7073V63.9853H49.2959V35.3507ZM69.1498 35.3507H71.0858L79.6652 47.9435L88.4343 35.3507L100.362 19.3549L80.766 49.2669L90.8638 63.9853H88.8519L79.6652 50.5904L70.4405 63.9853H68.4665L78.6402 49.2669L69.1498 35.3507ZM91.5851 36.8746V35.3507H112.35V36.8746H102.784V63.9853H101.113V36.8746H91.5851Z" fill="white"/>
<path d="M26.5 35.3506H28.5879L57.3786 80.6851L45.4808 63.9853L28.2462 37.5163L28.1703 63.9853H26.5V35.3506Z" fill="white"/>
<path d="M112.182 62.0014C112.527 62.0014 112.779 61.7232 112.779 61.3636C112.779 61.004 112.527 60.7258 112.182 60.7258C111.841 60.7258 111.585 61.004 111.585 61.3636C111.585 61.7232 111.841 62.0014 112.182 62.0014ZM113.823 60.3234C113.823 61.385 114.55 62.0784 115.611 62.0784C116.74 62.0784 117.423 61.3636 117.423 60.1222V55.7519H116.513V60.118C116.513 60.8071 116.183 61.1752 115.603 61.1752C115.083 61.1752 114.729 60.8328 114.717 60.3234H113.823ZM118.613 60.2678C118.678 61.3722 119.551 62.0784 120.851 62.0784C122.241 62.0784 123.11 61.3379 123.11 60.1565C123.11 59.2276 122.615 58.714 121.412 58.4186L120.766 58.2517C120.002 58.0633 119.694 57.8108 119.694 57.3699C119.694 56.8134 120.173 56.4496 120.892 56.4496C121.575 56.4496 122.046 56.8049 122.131 57.3742H123.017C122.964 56.334 122.095 55.6021 120.904 55.6021C119.624 55.6021 118.771 56.334 118.771 57.4341C118.771 58.3416 119.255 58.8809 120.315 59.142L121.071 59.3346C121.847 59.5273 122.188 59.8098 122.188 60.2806C122.188 60.8285 121.652 61.2266 120.92 61.2266C120.136 61.2266 119.592 60.8542 119.515 60.2678H118.613Z" fill="white"/>
</svg>
